HIERARCHY
ROOT Hips
{
  OFFSET 55.3847 55.3221 12.229
  CHANNELS 6 Xposition Yposition Zposition Zrotation Xrotation Yrotation
  JOINT spine
  {
    OFFSET 0 8.13249 0.467659
    CHANNELS 3 Zrotation Xrotation Yrotation
    JOINT spine1
    {
      OFFSET 0 10.3498 0
      CHANNELS 3 Zrotation Xrotation Yrotation
      JOINT spine2
      {
        OFFSET 0 9.91699 0
        CHANNELS 3 Zrotation Xrotation Yrotation
        JOINT Neck
        {
          OFFSET 0 25.461 1.2139
          CHANNELS 3 Zrotation Xrotation Yrotation
          JOINT Head
          {
            OFFSET 0 7.69245 0
            CHANNELS 3 Zrotation Xrotation Yrotation
            End Site
            {
              OFFSET 0 18.62 -6.14063
            }
          }
        }
        JOINT RightShoulder
        {
          OFFSET -4.17575 10.7096 -0.581445
          CHANNELS 3 Zrotation Xrotation Yrotation
          JOINT RightArm
          {
            OFFSET 0 14.0466 0
            CHANNELS 3 Zrotation Xrotation Yrotation
            JOINT RightArmRoll
            {
              OFFSET 0 7.09099 0
              CHANNELS 3 Zrotation Xrotation Yrotation
              JOINT RightForeArm
              {
                OFFSET 0 20.6535 0
                CHANNELS 3 Zrotation Xrotation Yrotation
                JOINT RightForeArmRoll
                {
                  OFFSET 0 7.95718 0
                  CHANNELS 3 Zrotation Xrotation Yrotation
                  JOINT RightHand
                  {
                    OFFSET 0 15.9683 0
                    CHANNELS 3 Zrotation Xrotation Yrotation
                    End Site
                    {
                      OFFSET 0 0 0
                    }
                  }
                }
              }
            }
          }
        }
        JOINT LeftShoulder
        {
          OFFSET 4.17575 10.7096 -0.581445
          CHANNELS 3 Zrotation Xrotation Yrotation
          JOINT LeftArm
          {
            OFFSET 0 14.0466 0
            CHANNELS 3 Zrotation Xrotation Yrotation
            JOINT LeftArmRoll
            {
              OFFSET 0 7.09099 0
              CHANNELS 3 Zrotation Xrotation Yrotation
              JOINT LeftForeArm
              {
                OFFSET 0 20.6535 0
                CHANNELS 3 Zrotation Xrotation Yrotation
                JOINT LeftForeArmRoll
                {
                  OFFSET 0 7.95718 0
                  CHANNELS 3 Zrotation Xrotation Yrotation
                  JOINT LeftHand
                  {
                    OFFSET 0 15.9683 0
                    CHANNELS 3 Zrotation Xrotation Yrotation
                    End Site
                    {
                      OFFSET 0 0 0
                    }
                  }
                }
              }
            }
          }
        }
      }
    }
  }
  JOINT RightUpLeg
  {
    OFFSET -7.20834 -1.32182 -1.10884
    CHANNELS 3 Zrotation Xrotation Yrotation
    JOINT RightUpLegRoll
    {
      OFFSET 0 18.7238 0
      CHANNELS 3 Zrotation Xrotation Yrotation
      JOINT RightLeg
      {
        OFFSET 0 -23.1866 0
        CHANNELS 3 Zrotation Xrotation Yrotation
        JOINT RightLegRoll
        {
          OFFSET 0 23.2624 0
          CHANNELS 3 Zrotation Xrotation Yrotation
          JOINT RightFoot
          {
            OFFSET 0 19.3621 0
            CHANNELS 3 Zrotation Xrotation Yrotation
            JOINT RightToeBase
            {
              OFFSET 0 16.1857 0
              CHANNELS 3 Zrotation Xrotation Yrotation
              End Site
              {
                OFFSET 0.00686052 7.83863 -0.903521
              }
            }
          }
        }
      }
    }
  }
  JOINT LeftUpLeg
  {
    OFFSET 7.20834 -1.32182 -1.10884
    CHANNELS 3 Zrotation Xrotation Yrotation
    JOINT LeftUpLegRoll
    {
      OFFSET 0 18.7239 0
      CHANNELS 3 Zrotation Xrotation Yrotation
      JOINT LeftLeg
      {
        OFFSET 0 23.1865 0
        CHANNELS 3 Zrotation Xrotation Yrotation
        JOINT LeftLegRoll
        {
          OFFSET 0 23.4775 0
          CHANNELS 3 Zrotation Xrotation Yrotation
          JOINT LeftFoot
          {
            OFFSET 0 19.147 0
            CHANNELS 3 Zrotation Xrotation Yrotation
            JOINT LeftToeBase
            {
              OFFSET 0 16.1857 0
              CHANNELS 3 Zrotation Xrotation Yrotation
              End Site
              {
                OFFSET -0.0307459 7.83862 -0.903522
              }
            }
          }
        }
      }
    }
  }
}
MOTION
Frames: 10
Frame Time: 0.00208333
55.2397 96.6473 55.3127 -0.583681 -1.7643 0.72724 0.286463 -1.85935 0.0854062 0.574307 0.284403 0.142887 0.572838 1.92943 0.13332 2.34284 14.8091 -7.41855 0.3595 7.08353 -6.84428 60.0334 -9.83337 -6.12175 112.32 19.227 14.3126 2.98823e-007 1.75864e-007 -3.33045e-006 9.90373 1.63185 -0.752377 -5.87629e-007 9.11e-007 -3 8.02894 -4.95145 0.697664 -61.6055 -7.71178 4.8721 -109.965 17.8203 -6.55076 -1.21098e-006 -3.8038e-006 2.42889e-006 -9.61823 0.0735164 0.881967 4.2694e-006 5.30448e-006 3.0167 -8.02897 -4.95146 -0.6977 175.395 1.76094 2.57971 180 7.01542e-015 178.901 178.191 8.43416 179.845 1.35771e-006 1.24203e-006 0.124488 -19.0066 68.3202 19.8247 8.13649 25.2327 -3.48774 -175.185 1.15767 -0.454283 4.54188e-006 -4.6773e-006 -1.10349 -1.30672 -9.2837 0.250321 7.84065e-007 -1.93495e-007 -0.179954 19.7649 69.2736 -20.6526 -8.14516 25.3684 3.30541 
55.2412 96.6599 55.3336 -0.584662 -1.76778 0.717919 0.28559 -1.8543 0.0882177 0.572624 0.294507 0.14857 0.571088 1.93953 0.139033 2.3743 14.7426 -7.42541 0.335946 7.13518 -6.84532 60.0509 -9.86364 -6.14034 112.314 19.25 14.298 2.98823e-007 1.75864e-007 -3.33045e-006 9.90662 1.63976 -0.754035 -5.87629e-007 9.11e-007 -3 8.02894 -4.95145 0.697664 -61.5634 -7.72727 4.88008 -110.012 17.8404 -6.53242 -1.21098e-006 -3.8038e-006 2.42889e-006 -9.61368 0.0735174 0.88279 4.2694e-006 5.30448e-006 3.0167 -8.02897 -4.95146 -0.6977 175.401 1.74844 2.57507 180 7.01542e-015 178.901 178.193 8.41219 179.844 1.35771e-006 1.24203e-006 0.124406 -18.9969 68.3087 19.8142 8.13649 25.2327 -3.48774 -175.181 1.12325 -0.465969 4.54188e-006 -4.6773e-006 -1.10365 -1.31843 -9.23657 0.248271 7.84064e-007 -1.93495e-007 -0.178211 19.7477 69.2555 -20.6353 -8.1452 25.3691 3.30457 
55.2084 96.6689 55.3581 -0.585843 -1.77212 0.708248 0.284716 -1.84891 0.0912229 0.570942 0.305301 0.154638 0.569335 1.95033 0.145132 2.40702 14.672 -7.43275 0.3113 7.18916 -6.84664 60.0685 -9.89612 -6.16029 112.308 19.274 14.2826 2.98823e-007 1.75864e-007 -3.33045e-006 9.90969 1.6486 -0.755838 -5.87629e-007 9.11e-007 -3 8.02894 -4.95145 0.697664 -61.519 -7.74318 4.88823 -110.061 17.8614 -6.51325 -1.21098e-006 -3.8038e-006 2.42889e-006 -9.60876 0.0735185 0.883697 4.2694e-006 5.30448e-006 3.0167 -8.02897 -4.95146 -0.6977 175.408 1.73369 2.57021 180 7.01542e-015 178.901 178.196 8.38774 179.844 1.35771e-006 1.24203e-006 0.124284 -18.9864 68.2962 19.8028 8.13649 25.2327 -3.48774 -175.175 1.08539 -0.479119 4.54188e-006 -4.6773e-006 -1.10384 -1.3314 -9.18552 0.246006 7.84064e-007 -1.93495e-007 -0.176292 19.7288 69.2355 -20.6163 -8.14526 25.3699 3.30347 
55.2247 96.6609 55.346 -0.587163 -1.77707 0.69833 0.28384 -1.84328 0.0943635 0.569259 0.316578 0.160976 0.567578 1.96161 0.151501 2.4406 14.5985 -7.44043 0.285889 7.24478 -6.84817 60.0862 -9.93014 -6.1812 112.303 19.2986 14.2664 2.98823e-007 1.75864e-007 -3.33045e-006 9.91289 1.65809 -0.757743 -5.87629e-007 9.11e-007 -3 8.02894 -4.95145 0.697664 -61.4729 -7.75937 4.89651 -110.113 17.8832 -6.4935 -1.21098e-006 -3.8038e-006 2.42889e-006 -9.60359 0.0735196 0.884662 4.2694e-006 5.30448e-006 3.0167 -8.02897 -4.95146 -0.6977 175.415 1.71736 2.56519 180 7.01542e-015 178.901 178.199 8.36157 179.844 1.35771e-006 1.24203e-006 0.124134 -18.9752 68.2829 19.7908 8.13649 25.2327 -3.48774 -175.17 1.04512 -0.493294 4.54188e-006 -4.6773e-006 -1.10404 -1.34525 -9.13172 0.24359 7.84064e-007 -1.93495e-007 -0.17425 19.7087 69.2142 -20.596 -8.14532 25.3708 3.30221 
55.2127 96.6587 55.347 -0.588565 -1.78236 0.688272 0.282964 -1.83751 0.0975816 0.567575 0.32813 0.167468 0.565818 1.97316 0.158024 2.47467 14.5233 -7.4483 0.260044 7.30133 -6.84982 60.1039 -9.96504 -6.20265 112.298 19.3235 14.2499 2.98823e-007 1.75864e-007 -3.33045e-006 9.91617 1.66795 -0.759706 -5.87629e-007 9.11e-007 -3 8.02894 -4.95145 0.697664 -61.4259 -7.77572 4.90485 -110.166 17.9053 -6.47341 -1.21098e-006 -3.8038e-006 2.42889e-006 -9.59827 0.0735207 0.885661 4.2694e-006 5.30448e-006 3.0167 -8.02897 -4.95146 -0.6977 175.422 1.70013 2.56008 180 7.01542e-015 178.9 178.202 8.33444 179.844 1.35771e-006 1.24203e-006 0.123968 -18.9638 68.2693 19.7784 8.13649 25.2327 -3.48774 -175.164 1.00347 -0.508054 4.54188e-006 -4.6773e-006 -1.10426 -1.3596 -9.07635 0.241089 7.84064e-007 -1.93495e-007 -0.172137 19.6879 69.1922 -20.5751 -8.14539 25.3718 3.30085 
55.2184 96.6557 55.3448 -0.589989 -1.78773 0.678179 0.282086 -1.83171 0.100819 0.565888 0.339751 0.173999 0.564055 1.98478 0.164586 2.50884 14.4478 -7.45623 0.234093 7.35811 -6.85151 60.1217 -10.0002 -6.22424 112.293 19.3486 14.2332 2.98823e-007 1.75864e-007 -3.33045e-006 9.91946 1.67791 -0.761684 -5.87629e-007 9.11e-007 -3 8.02894 -4.95145 0.697664 -61.3787 -7.79211 4.91322 -110.219 17.9276 -6.45324 -1.21098e-006 -3.8038e-006 2.42889e-006 -9.59291 0.0735219 0.886668 4.2694e-006 5.30448e-006 3.0167 -8.02897 -4.95146 -0.6977 175.429 1.68268 2.55495 180 7.01542e-015 178.9 178.205 8.30704 179.844 1.35771e-006 1.24203e-006 0.123798 -18.9523 68.2555 19.766 8.13649 25.2327 -3.48774 -175.158 0.961483 -0.52296 4.54188e-006 -4.6773e-006 -1.10448 -1.37407 -9.02059 0.238567 7.84064e-007 -1.93495e-007 -0.170007 19.667 69.17 -20.5541 -8.14545 25.3728 3.29946 
55.2088 96.6585 55.3494 -0.591375 -1.79293 0.668156 0.281209 -1.82597 0.104018 0.564199 0.351234 0.180453 0.56229 1.99627 0.171071 2.54275 14.3731 -7.46407 0.208363 7.41443 -6.85314 60.1393 -10.0348 -6.24557 112.288 19.3735 14.2168 2.98823e-007 1.75864e-007 -3.33045e-006 9.92272 1.68768 -0.763633 -5.87629e-007 9.11e-007 -3 8.02894 -4.95145 0.697664 -61.3319 -7.80843 4.92155 -110.271 17.9496 -6.43323 -1.21098e-006 -3.8038e-006 2.42889e-006 -9.58763 0.073523 0.887658 4.2694e-006 5.30448e-006 3.0167 -8.02897 -4.95146 -0.6977 175.436 1.66567 2.54986 180 7.01542e-015 178.9 178.207 8.28015 179.844 1.35771e-006 1.24203e-006 0.123636 -18.9409 68.2419 19.7537 8.13649 25.2327 -3.48774 -175.152 0.920181 -0.537574 4.54188e-006 -4.6773e-006 -1.10469 -1.38828 -8.96561 0.23609 7.84064e-007 -1.93495e-007 -0.167912 19.6465 69.1481 -20.5334 -8.14552 25.3738 3.29812 
55.2103 96.6546 55.3474 -0.592663 -1.7977 0.658308 0.280331 -1.82041 0.10712 0.562505 0.362372 0.186714 0.560523 2.00741 0.177363 2.57599 14.3004 -7.47168 0.183184 7.46957 -6.85464 60.1569 -10.0684 -6.26623 112.283 19.3979 14.2008 2.98823e-007 1.75864e-007 -3.33045e-006 9.92589 1.69698 -0.765509 -5.87629e-007 9.11e-007 -3 8.02894 -4.95145 0.697664 -61.2863 -7.82453 4.9298 -110.323 17.9711 -6.41363 -1.21098e-006 -3.8038e-006 2.42889e-006 -9.58253 0.0735242 0.888607 4.2694e-006 5.30448e-006 3.0167 -8.02897 -4.95146 -0.6977 175.442 1.64979 2.54489 180 7.01542e-015 178.9 178.21 8.25447 179.843 1.35771e-006 1.24203e-006 0.123494 -18.93 68.2288 19.7419 8.13649 25.2327 -3.48774 -175.147 0.880601 -0.551456 4.54188e-006 -4.6773e-006 -1.1049 -1.40186 -8.91259 0.233721 7.84064e-007 -1.93495e-007 -0.165905 19.6269 69.1272 -20.5137 -8.14558 25.3747 3.29691 
55.2081 96.6549 55.3314 -0.593793 -1.80179 0.648742 0.279453 -1.81513 0.110066 0.560808 0.372959 0.192667 0.558757 2.018 0.183347 2.60821 14.231 -7.47892 0.158882 7.52286 -6.85592 60.1743 -10.1002 -6.28581 112.277 19.4216 14.1856 2.98823e-007 1.75864e-007 -3.33045e-006 9.92891 1.70554 -0.767268 -5.87629e-007 9.11e-007 -3 8.02894 -4.95145 0.697664 -61.2425 -7.84031 4.9379 -110.371 17.9919 -6.39469 -1.21098e-006 -3.8038e-006 2.42889e-006 -9.57772 0.0735252 0.889488 4.2694e-006 5.30448e-006 3.0167 -8.02897 -4.95146 -0.6977 175.449 1.63572 2.5401 180 7.01542e-015 178.9 178.213 8.23079 179.843 1.35771e-006 1.24203e-006 0.123385 -18.9198 68.2166 19.7309 8.13649 25.2327 -3.48774 -175.142 0.843775 -0.564166 4.54188e-006 -4.6773e-006 -1.10508 -1.41442 -8.86272 0.231526 7.84064e-007 -1.93495e-007 -0.164039 19.6088 69.1077 -20.4954 -8.14563 25.3754 3.29589 
55.2075 96.6527 55.3338 -0.594705 -1.80492 0.639562 0.278576 -1.81022 0.1128 0.559107 0.382788 0.198195 0.556991 2.02783 0.188907 2.63903 14.1661 -7.48565 0.135785 7.57357 -6.8569 60.1915 -10.1295 -6.30391 112.271 19.4443 14.1714 2.98823e-007 1.75864e-007 -3.33045e-006 9.93172 1.71309 -0.768868 -5.87629e-007 9.11e-007 -3 8.02894 -4.95145 0.697664 -61.2013 -7.85564 4.94582 -110.417 18.0115 -6.37665 -1.21098e-006 -3.8038e-006 2.42889e-006 -9.57332 0.0735261 0.890278 4.2694e-006 5.30448e-006 3.0167 -8.02897 -4.95146 -0.6977 175.455 1.62411 2.53556 180 7.01542e-015 178.9 178.215 8.20978 179.843 1.35771e-006 1.24203e-006 0.123319 -18.9105 68.2056 19.7209 8.13649 25.2327 -3.48774 -175.138 0.810738 -0.575266 4.54188e-006 -4.6773e-006 -1.10523 -1.4256 -8.81715 0.229569 7.84065e-007 -1.93495e-007 -0.162366 19.5926 69.0903 -20.4791 -8.14567 25.376 3.29514 
